<?xml version="1.0" encoding="utf-8"?>
<!-- Generator: Adobe Illustrator 23.0.1, SVG Export Plug-In . SVG Version: 6.00 Build 0)  -->
<svg version="1.1" id="Lager_1" xmlns="http://www.w3.org/2000/svg" xmlns:xlink="http://www.w3.org/1999/xlink" x="0px" y="0px"
	 viewBox="0 0 1024 1024" style="enable-background:new 0 0 1024 1024;" xml:space="preserve">
<style type="text/css">
	.st0{fill:#F7931E;}
	.st1{fill:none;}
	.st2{font-family:'MyriadPro-Regular';}
	.st3{font-size:272px;}
	.st4{fill:none;stroke:#FFFFFF;stroke-width:4;stroke-miterlimit:10;}
</style>
<g>
	<path class="st0" d="M509,873c-57.3,0-112.9-10.3-165.2-30.6c-50.5-19.6-95.9-47.7-134.8-83.5c-38.9-35.7-69.4-77.3-90.8-123.7
		C96.2,587.4,85,536.5,85,484s11.2-103.4,33.3-151.3c21.3-46.3,51.9-87.9,90.8-123.6c38.9-35.8,84.3-63.8,134.8-83.5
		C396.1,105.3,451.7,95,509,95s112.9,10.3,165.2,30.6c50.5,19.6,95.8,47.7,134.8,83.5c38.9,35.7,69.5,77.3,90.8,123.7
		C921.8,380.6,933,431.5,933,484s-11.2,103.4-33.3,151.3c-21.3,46.3-51.9,87.9-90.8,123.7c-38.9,35.8-84.3,63.8-134.8,83.5
		C621.9,862.7,566.3,873,509,873z"/>
	<path d="M509,100c56.7,0,111.6,10.2,163.4,30.3c49.9,19.4,94.7,47.1,133.2,82.5c38.4,35.3,68.6,76.4,89.6,122.1
		C917,382.1,928,432.3,928,484s-11,101.9-32.8,149.2c-21,45.7-51.2,86.8-89.6,122.1c-38.5,35.3-83.3,63.1-133.2,82.5
		C620.6,857.8,565.7,868,509,868s-111.6-10.2-163.4-30.3c-49.9-19.4-94.7-47.1-133.2-82.5c-38.4-35.3-68.6-76.3-89.6-122.1
		C101,585.9,90,535.7,90,484s11-101.9,32.8-149.2c21.1-45.7,51.2-86.8,89.6-122.1c38.5-35.3,83.3-63.1,133.2-82.5
		C397.4,110.2,452.3,100,509,100 M509,90C272.1,90,80,266.4,80,484s192.1,394,429,394s429-176.4,429-394S745.9,90,509,90L509,90z"/>
</g>
<rect x="37" y="257.6" class="st1" width="970" height="539.4"/>
<text transform="matrix(1 0 0 1 237.9014 450.7583)" class="st2 st3">Daily </text>
<text transform="matrix(1 0 0 1 237.9014 450.7583)" class="st4 st2 st3">Daily </text>
<text transform="matrix(1 0 0 1 264.1514 687.7583)" class="st2 st3">Brief</text>
<text transform="matrix(1 0 0 1 264.1514 687.7583)" class="st4 st2 st3">Brief</text>
</svg>
